<svg width="192" height="34" viewBox="0 0 192 34" fill="none" xmlns="http://www.w3.org/2000/svg">
<path d="M20.0628 0L0 34H40.1257L20.0628 0Z" fill="#FFB914"/>
<path d="M20.0022 29.3201C13.6106 29.3201 8.42969 22.4101 8.42969 22.4101C8.42969 22.4101 13.6106 15.5117 20.0022 15.5117C26.3939 15.5117 31.5747 22.4218 31.5747 22.4218C31.5747 22.4218 26.3939 29.3201 20.0022 29.3201Z" fill="black"/>
<path d="M20.0023 27.3504C22.7068 27.3504 24.8992 25.1386 24.8992 22.4101C24.8992 19.6816 22.7068 17.4697 20.0023 17.4697C17.2979 17.4697 15.1055 19.6816 15.1055 22.4101C15.1055 25.1386 17.2979 27.3504 20.0023 27.3504Z" fill="#FFB914"/>
<path d="M20.0012 25.3223C21.5961 25.3223 22.8891 24.0185 22.8891 22.4102C22.8891 20.8018 21.5961 19.498 20.0012 19.498C18.4062 19.498 17.1133 20.8018 17.1133 22.4102C17.1133 24.0185 18.4062 25.3223 20.0012 25.3223Z" fill="#1E41FF"/>
<path d="M52.1921 14.4045V18.623H59.7354V21.586H52.1921V27.399H48.4141V11.4395H60.7345V14.4045H52.1921Z" fill="white"/>
<path d="M72.2155 16.3078C73.2566 17.2119 73.7771 18.5763 73.7771 20.401V27.3996H70.3769V25.8729C69.6927 27.014 68.4194 27.5839 66.557 27.5825C65.6939 27.6035 64.8366 27.4401 64.0446 27.1037C63.3863 26.8244 62.8244 26.3649 62.4264 25.7804C62.0549 25.2111 61.8636 24.547 61.8764 23.8715C61.856 23.3522 61.9652 22.8359 62.1945 22.3672C62.4238 21.8986 62.7663 21.4917 63.1924 21.1818C64.0684 20.5284 65.4229 20.2017 67.2559 20.2017H70.1439C70.1439 19.4277 69.9033 18.8311 69.4219 18.4119C68.9406 17.9928 68.2186 17.7818 67.2559 17.7791C66.5871 17.7792 65.9226 17.8832 65.2871 18.0873C64.6937 18.2666 64.1378 18.5484 63.6458 18.9195L62.3424 16.4332C63.0906 15.9332 63.9214 15.5634 64.7981 15.34C65.7552 15.0812 66.7436 14.9506 67.7365 14.9517C69.6815 14.9517 71.1745 15.4037 72.2155 16.3078ZM69.1176 24.7674C69.5977 24.488 69.9612 24.0512 70.1439 23.5345V22.2811H67.6505C66.1603 22.2811 65.4152 22.7606 65.4152 23.7195C65.4083 23.9302 65.4548 24.1393 65.5503 24.3282C65.6459 24.5171 65.7876 24.68 65.963 24.8023C66.4069 25.0903 66.934 25.2302 67.4658 25.201C68.0467 25.2084 68.6184 25.0584 69.1176 24.7674Z" fill="white"/>
<path d="M78.2207 27.2058C77.3815 27.018 76.5791 26.6981 75.8447 26.2585L77.0537 23.7064C77.6828 24.0862 78.3651 24.3742 79.0791 24.5612C79.8363 24.7766 80.6204 24.888 81.4089 24.8921C82.9481 24.8921 83.7176 24.5195 83.7176 23.7743C83.7176 23.4249 83.5078 23.1743 83.088 23.0222C82.4602 22.8261 81.8129 22.6959 81.157 22.6338C80.2991 22.517 79.4505 22.342 78.6174 22.1099C77.9554 21.9158 77.3575 21.5543 76.8837 21.0619C76.3953 20.5606 76.1505 19.8462 76.1491 18.9188C76.14 18.1785 76.3813 17.456 76.8354 16.864C77.3511 16.2141 78.0459 15.7222 78.8377 15.4462C79.8334 15.0925 80.8873 14.9225 81.9462 14.9448C82.8354 14.9484 83.7216 15.0476 84.5887 15.2407C85.3523 15.3881 86.087 15.6538 86.7652 16.0277L85.5563 18.5571C84.455 17.9495 83.2103 17.6349 81.9462 17.6448C81.1696 17.6448 80.5861 17.7517 80.1999 17.9654C79.8137 18.1791 79.6164 18.4523 79.6164 18.7873C79.6164 19.1667 79.8263 19.4332 80.2461 19.5866C80.8985 19.7907 81.5688 19.9352 82.2484 20.0181C83.098 20.1482 83.939 20.3272 84.7671 20.5544C85.4177 20.7413 86.0049 21.0962 86.4672 21.5818C86.9485 22.0832 87.1892 22.7825 87.1892 23.6797C87.1983 24.4139 86.9518 25.1291 86.4903 25.7078C85.9585 26.3467 85.2526 26.8248 84.4544 27.0866C83.4327 27.4341 82.3559 27.6004 81.2745 27.5777C80.2446 27.5809 79.2184 27.4559 78.2207 27.2058Z" fill="white"/>
<path d="M97.5109 26.8075C97.1157 27.0831 96.6694 27.2806 96.197 27.389C95.6593 27.5191 95.1074 27.584 94.5535 27.5821C93.0633 27.5821 91.911 27.2095 91.0967 26.4643C90.2823 25.7191 89.8744 24.6232 89.873 23.1767V18.1424H87.9399V15.4075H89.873V12.4219H93.5062V15.4075H96.6272V18.1424H93.5062V23.1356C93.4777 23.5715 93.6238 24.0012 93.9134 24.3335C94.0654 24.477 94.2465 24.5878 94.445 24.6586C94.6435 24.7294 94.8549 24.7586 95.0657 24.7445C95.5941 24.7598 96.1121 24.599 96.5349 24.2883L97.5109 26.8075Z" fill="white"/>
<path d="M111.366 22.2701H101.888C102.039 23.0005 102.473 23.6454 103.099 24.0701C103.8 24.5299 104.631 24.7614 105.475 24.7318C106.066 24.7423 106.655 24.6455 107.211 24.4462C107.737 24.2426 108.217 23.9364 108.619 23.5462L110.552 25.6009C109.372 26.9229 107.649 27.5838 105.382 27.5838C104.084 27.6096 102.798 27.3321 101.632 26.7742C100.59 26.2774 99.7154 25.4978 99.1131 24.5283C98.5154 23.5433 98.2088 22.4151 98.2274 21.2694C98.2094 20.1286 98.5098 19.0047 99.0963 18.0188C99.668 17.0634 100.498 16.2812 101.495 15.7585C102.545 15.2117 103.719 14.9333 104.908 14.9489C106.066 14.9332 107.21 15.1994 108.237 15.7236C109.219 16.2298 110.031 17.0015 110.577 17.9468C111.16 18.9745 111.454 20.1354 111.427 21.3105C111.436 21.3578 111.413 21.6763 111.366 22.2701ZM102.874 18.3229C102.305 18.7982 101.94 19.4657 101.85 20.1927H108.021C107.924 19.4738 107.559 18.8152 106.997 18.3434C106.424 17.874 105.695 17.6263 104.948 17.6468C104.196 17.6212 103.46 17.8612 102.874 18.3229Z" fill="white"/>
<path d="M119.085 15.4075C119.895 15.0902 120.763 14.9351 121.635 14.9513V18.239C121.232 18.2082 120.962 18.1938 120.821 18.1938C119.78 18.1938 118.965 18.4787 118.376 19.0486C117.787 19.6185 117.491 20.4726 117.49 21.6109V27.4013H113.859V15.1342H117.328V16.7534C117.773 16.152 118.382 15.6856 119.085 15.4075Z" fill="white"/>
<path d="M134.807 12.1453C135.824 12.5604 136.687 13.2701 137.28 14.1791C137.873 15.0882 138.168 16.1531 138.126 17.231C138.15 18.3135 137.851 19.3794 137.263 20.2967C136.666 21.1889 135.811 21.887 134.807 22.3022C133.617 22.7907 132.336 23.0281 131.046 22.9988H127.763V27.3981H123.985V11.4385H131.042C132.334 11.4087 133.618 11.6497 134.807 12.1453ZM133.422 19.2714C134.01 18.7919 134.304 18.1118 134.306 17.231C134.306 16.333 134.01 15.6467 133.422 15.1762C132.834 14.7056 131.97 14.459 130.836 14.459H127.763V20.007H130.836C131.97 19.9947 132.831 19.7494 133.422 19.2714Z" fill="white"/>
<path d="M149.951 16.3069C150.992 17.211 151.512 18.5753 151.51 20.4V27.3986H148.112V25.8719C147.428 27.013 146.155 27.5829 144.292 27.5815C143.432 27.6013 142.578 27.4379 141.788 27.1027C141.13 26.8228 140.569 26.3634 140.17 25.7795C139.794 25.2115 139.597 24.5476 139.603 23.8705C139.583 23.3513 139.692 22.8349 139.922 22.3663C140.151 21.8976 140.493 21.4907 140.919 21.1808C141.797 20.5274 143.151 20.2007 144.983 20.2007H147.871C147.871 19.4267 147.63 18.8301 147.149 18.411C146.666 18 145.946 17.7843 144.983 17.7843C144.314 17.7844 143.65 17.8884 143.014 18.0925C142.421 18.2722 141.865 18.554 141.373 18.9247L140.069 16.4384C140.822 15.9345 141.659 15.5626 142.542 15.339C143.499 15.0802 144.487 14.9496 145.48 14.9507C147.42 14.9507 148.91 15.4027 149.951 16.3069ZM146.855 24.7664C147.334 24.4862 147.697 24.0497 147.879 23.5336V22.2801H145.386C143.896 22.2801 143.151 22.7596 143.151 23.7185C143.144 23.9292 143.19 24.1383 143.286 24.3272C143.381 24.5161 143.523 24.679 143.698 24.8014C144.142 25.0894 144.669 25.2292 145.201 25.2C145.783 25.207 146.355 25.057 146.855 24.7664Z" fill="white"/>
<path d="M167 15.1343L161.333 28.1514C160.758 29.5651 160.047 30.561 159.2 31.1391C158.297 31.7338 157.226 32.037 156.138 32.0062C155.482 32.0047 154.83 31.9042 154.205 31.7082C153.632 31.5442 153.101 31.2642 152.646 30.8863L153.972 28.3548C154.257 28.6003 154.585 28.7938 154.94 28.926C155.285 29.059 155.652 29.1286 156.023 29.1315C156.455 29.1499 156.882 29.0254 157.234 28.7781C157.606 28.4584 157.894 28.0551 158.073 27.6028L158.119 27.4897L152.7 15.1343H156.449L159.96 23.4603L163.499 15.1384L167 15.1343Z" fill="white"/>
</svg>
