<svg width="1440" height="900" viewBox="0 0 1440 900" fill="none" xmlns="http://www.w3.org/2000/svg">
<g clip-path="url(#clip0)">
<rect width="1440" height="900" fill="white"/>
<path d="M-45 -40H1511V935H-45V-40Z" fill="#111052"/>
<path d="M1315.5 886L1318 883L1313 883L1315.5 886Z" fill="#00F6D7"/>
<path d="M1223.56 886L1226 883L1221 883L1223.56 886Z" fill="#00F6D7"/>
<path d="M1131.56 886L1134 883L1129 883L1131.56 886Z" fill="#00F6D7"/>
<path d="M1039.56 886L1042 883L1037 883L1039.56 886Z" fill="#00F6D7"/>
<path d="M948.956 886L951 883L947 883L948.956 886Z" fill="#00F6D7"/>
<path d="M857.044 886L859 883L855 883L857.044 886Z" fill="#00F6D7"/>
<path d="M764.956 886L767 883L763 883L764.956 886Z" fill="#00F6D7"/>
<path d="M673.956 886L676 883L672 883L673.956 886Z" fill="#00F6D7"/>
<path d="M582 886L584 883L580 883L582 886Z" fill="#00F6D7"/>
<path d="M490 886L492 883L488 883L490 886Z" fill="#00F6D7"/>
<path d="M398.5 886L400 883L397 883L398.5 886Z" fill="#00F6D7"/>
<path d="M307.5 886L310 883L305 883L307.5 886Z" fill="#00F6D7"/>
<path d="M215.5 886L218 883L213 883L215.5 886Z" fill="#00F6D7"/>
<path d="M123.5 886L126 883L121 883L123.5 886Z" fill="#00F6D7"/>
<path d="M1360.45 796L1365 789L1356 789L1360.45 796Z" fill="#00F6D7"/>
<path d="M1268.45 796L1273 789L1264 789L1268.45 796Z" fill="#00F6D7"/>
<path d="M1177.96 796L1182 789L1174 789L1177.96 796Z" fill="#00F6D7"/>
<path d="M1086.45 796L1091 789L1082 789L1086.45 796Z" fill="#00F6D7"/>
<path d="M994.5 796L999 789L990 789L994.5 796Z" fill="#00F6D7"/>
<path d="M902.5 796L907 789L898 789L902.5 796Z" fill="#00F6D7"/>
<path d="M811.5 796L816 789L807 789L811.5 796Z" fill="#00F6D7"/>
<path d="M719.5 796L724 789L715 789L719.5 796Z" fill="#00F6D7"/>
<path d="M627.551 796L632 789L623 789L627.551 796Z" fill="#00F6D7"/>
<path d="M536.551 796L541 789L532 789L536.551 796Z" fill="#00F6D7"/>
<path d="M444.551 796L449 789L440 789L444.551 796Z" fill="#00F6D7"/>
<path d="M352.551 796L357 789L348 789L352.551 796Z" fill="#00F6D7"/>
<path d="M261.045 796L265 789L257 789L261.045 796Z" fill="#00F6D7"/>
<path d="M170.056 796L175 789L165 789L170.056 796Z" fill="#00F6D7"/>
<path d="M78.5505 796L83 789L74 789L78.5505 796Z" fill="#00F6D7"/>
<path d="M1315.05 707L1321 695L1309 695L1315.05 707Z" fill="#00F6D7"/>
<path d="M1223.55 707L1230 695L1217 695L1223.55 707Z" fill="#00F6D7"/>
<path d="M1131.55 707L1138 695L1125 695L1131.55 707Z" fill="#00F6D7"/>
<path d="M1040.05 707L1046 695L1034 695L1040.05 707Z" fill="#00F6D7"/>
<path d="M948.947 707L956 695L942 695L948.947 707Z" fill="#00F6D7"/>
<path d="M857.053 707L864 695L850 695L857.053 707Z" fill="#00F6D7"/>
<path d="M764.947 707L772 695L758 695L764.947 707Z" fill="#00F6D7"/>
<path d="M673.947 707L681 695L667 695L673.947 707Z" fill="#00F6D7"/>
<path d="M581.947 707L589 695L575 695L581.947 707Z" fill="#00F6D7"/>
<path d="M489.947 707L497 695L483 695L489.947 707Z" fill="#00F6D7"/>
<path d="M398.955 707L405 695L393 695L398.955 707Z" fill="#00F6D7"/>
<path d="M307.451 707L314 695L301 695L307.451 707Z" fill="#00F6D7"/>
<path d="M215.451 707L222 695L209 695L215.451 707Z" fill="#00F6D7"/>
<path d="M123.5 707L130 695L117 695L123.5 707Z" fill="#00F6D7"/>
<path d="M1360.95 618L1371 601L1351 601L1360.95 618Z" fill="#00F6D7"/>
<path d="M1269.45 618L1279 601L1260 601L1269.45 618Z" fill="#00F6D7"/>
<path d="M1177.5 618L1187 601L1168 601L1177.5 618Z" fill="#00F6D7"/>
<path d="M1085.95 618L1096 601L1076 601L1085.95 618Z" fill="#00F6D7"/>
<path d="M994 618L1004 601L984 601L994 618Z" fill="#00F6D7"/>
<path d="M902.5 618L912 601L893 601L902.5 618Z" fill="#00F6D7"/>
<path d="M811.051 618L821 601L801 601L811.051 618Z" fill="#00F6D7"/>
<path d="M719.554 618L730 601L709 601L719.554 618Z" fill="#00F6D7"/>
<path d="M628.051 618L638 601L618 601L628.051 618Z" fill="#00F6D7"/>
<path d="M536.549 618L546 601L527 601L536.549 618Z" fill="#00F6D7"/>
<path d="M445.051 618L455 601L435 601L445.051 618Z" fill="#00F6D7"/>
<path d="M353.051 618L363 601L343 601L353.051 618Z" fill="#00F6D7"/>
<path d="M261.549 618L271 601L252 601L261.549 618Z" fill="#00F6D7"/>
<path d="M169.549 618L179 601L160 601L169.549 618Z" fill="#00F6D7"/>
<path d="M78.0513 618L88 601L68 601L78.0513 618Z" fill="#00F6D7"/>
<path d="M1315.05 530L1328 507L1302 507L1315.05 530Z" fill="#00F6D7"/>
<path d="M1223.05 530L1236 507L1210 507L1223.05 530Z" fill="#00F6D7"/>
<path d="M1132.05 530L1145 507L1119 507L1132.05 530Z" fill="#00F6D7"/>
<path d="M1040.05 530L1053 507L1027 507L1040.05 530Z" fill="#00F6D7"/>
<path d="M947.949 530L961 507L935 507L947.949 530Z" fill="#00F6D7"/>
<path d="M857.051 530L870 507L844 507L857.051 530Z" fill="#00F6D7"/>
<path d="M765.447 530L779 507L752 507L765.447 530Z" fill="#00F6D7"/>
<path d="M673.447 530L687 507L660 507L673.447 530Z" fill="#00F6D7"/>
<path d="M581.949 530L595 507L569 507L581.949 530Z" fill="#00F6D7"/>
<path d="M490.949 530L504 507L478 507L490.949 530Z" fill="#00F6D7"/>
<path d="M398.949 530L412 507L386 507L398.949 530Z" fill="#00F6D7"/>
<path d="M307 530L320 507L294 507L307 530Z" fill="#00F6D7"/>
<path d="M215.949 530L229 507L203 507L215.949 530Z" fill="#00F6D7"/>
<path d="M124 530L137 507L111 507L124 530Z" fill="#00F6D7"/>
<path d="M1361 441L1378 413L1344 413L1361 441Z" fill="#00F6D7"/>
<path d="M1269.5 441L1286 413L1253 413L1269.5 441Z" fill="#00F6D7"/>
<path d="M1177.5 441L1194 413L1161 413L1177.5 441Z" fill="#00F6D7"/>
<path d="M1085.5 441L1102 413L1069 413L1085.5 441Z" fill="#00F6D7"/>
<path d="M994 441L1011 413L977 413L994 441Z" fill="#00F6D7"/>
<path d="M902.5 441L919 413L886 413L902.5 441Z" fill="#00F6D7"/>
<path d="M810.5 441L827 413L794 413L810.5 441Z" fill="#00F6D7"/>
<path d="M719.5 441L737 413L702 413L719.5 441Z" fill="#00F6D7"/>
<path d="M628.5 441L645 413L612 413L628.5 441Z" fill="#00F6D7"/>
<path d="M536.5 441L553 413L520 413L536.5 441Z" fill="#00F6D7"/>
<path d="M445 441L462 413L428 413L445 441Z" fill="#00F6D7"/>
<path d="M353.5 441L370 413L337 413L353.5 441Z" fill="#00F6D7"/>
<path d="M261.5 441L278 413L245 413L261.5 441Z" fill="#00F6D7"/>
<path d="M169.5 441L186 413L153 413L169.5 441Z" fill="#00F6D7"/>
<path d="M78.0516 441L95 413L61 413L78.0516 441Z" fill="#00F6D7"/>
<path d="M1315.05 353L1335 317L1295 317L1315.05 353Z" fill="#00F6D7"/>
<path d="M1223.55 353L1244 317L1203 317L1223.55 353Z" fill="#00F6D7"/>
<path d="M1131.55 353L1152 317L1111 317L1131.55 353Z" fill="#00F6D7"/>
<path d="M1040.05 353L1060 317L1020 317L1040.05 353Z" fill="#00F6D7"/>
<path d="M948.449 353L969 317L928 317L948.449 353Z" fill="#00F6D7"/>
<path d="M856.551 353L877 317L836 317L856.551 353Z" fill="#00F6D7"/>
<path d="M765.451 353L785 317L746 317L765.451 353Z" fill="#00F6D7"/>
<path d="M673.451 353L693 317L654 317L673.451 353Z" fill="#00F6D7"/>
<path d="M582.449 353L603 317L562 317L582.449 353Z" fill="#00F6D7"/>
<path d="M490.449 353L511 317L470 317L490.449 353Z" fill="#00F6D7"/>
<path d="M398.95 353L419 317L379 317L398.95 353Z" fill="#00F6D7"/>
<path d="M307.449 353L328 317L287 317L307.449 353Z" fill="#00F6D7"/>
<path d="M215.5 353L236 317L195 317L215.5 353Z" fill="#00F6D7"/>
<path d="M124 353L144 317L104 317L124 353Z" fill="#00F6D7"/>
<path d="M1360.95 264L1385 222L1337 222L1360.95 264Z" fill="#00F6D7"/>
<path d="M1269.45 264L1294 222L1245 222L1269.45 264Z" fill="#00F6D7"/>
<path d="M1177.45 264L1202 222L1153 222L1177.45 264Z" fill="#00F6D7"/>
<path d="M1085.5 264L1110 222L1061 222L1085.5 264Z" fill="#00F6D7"/>
<path d="M993.95 264L1018 222L970 222L993.95 264Z" fill="#00F6D7"/>
<path d="M902.5 264L927 222L878 222L902.5 264Z" fill="#00F6D7"/>
<path d="M810.5 264L835 222L786 222L810.5 264Z" fill="#00F6D7"/>
<path d="M719.549 264L743 222L696 222L719.549 264Z" fill="#00F6D7"/>
<path d="M628.551 264L653 222L604 222L628.551 264Z" fill="#00F6D7"/>
<path d="M536.551 264L561 222L512 222L536.551 264Z" fill="#00F6D7"/>
<path d="M445.05 264L469 222L421 222L445.05 264Z" fill="#00F6D7"/>
<path d="M353.551 264L378 222L329 222L353.551 264Z" fill="#00F6D7"/>
<path d="M261.551 264L286 222L237 222L261.551 264Z" fill="#00F6D7"/>
<path d="M169.551 264L194 222L145 222L169.551 264Z" fill="#00F6D7"/>
<path d="M78.0501 264L102 222L54 222L78.0501 264Z" fill="#00F6D7"/>
<path d="M1315.05 177L1343 128L1287 128L1315.05 177Z" fill="#00F6D7"/>
<path d="M1223.55 177L1252 128L1195 128L1223.55 177Z" fill="#00F6D7"/>
<path d="M1131.55 177L1160 128L1103 128L1131.55 177Z" fill="#00F6D7"/>
<path d="M1040.05 177L1068 128L1012 128L1040.05 177Z" fill="#00F6D7"/>
<path d="M948.449 177L977 128L920 128L948.449 177Z" fill="#00F6D7"/>
<path d="M856.551 177L885 128L828 128L856.551 177Z" fill="#00F6D7"/>
<path d="M764.95 177L793 128L737 128L764.95 177Z" fill="#00F6D7"/>
<path d="M673.95 177L702 128L646 128L673.95 177Z" fill="#00F6D7"/>
<path d="M582.449 177L611 128L554 128L582.449 177Z" fill="#00F6D7"/>
<path d="M490.449 177L519 128L462 128L490.449 177Z" fill="#00F6D7"/>
<path d="M398.95 177L427 128L371 128L398.95 177Z" fill="#00F6D7"/>
<path d="M307.449 177L336 128L279 128L307.449 177Z" fill="#00F6D7"/>
<path d="M215.449 177L244 128L187 128L215.449 177Z" fill="#00F6D7"/>
<path d="M123.95 177L152 128L96 128L123.95 177Z" fill="#00F6D7"/>
<path d="M1361 89L1394 32L1328 32L1361 89Z" fill="#00F6D7"/>
<path d="M1269 89L1302 32L1236 32L1269 89Z" fill="#00F6D7"/>
<path d="M1177.5 89L1210 32L1145 32L1177.5 89Z" fill="#00F6D7"/>
<path d="M1086 89L1119 32L1053 32L1086 89Z" fill="#00F6D7"/>
<path d="M994 89L1027 32L961 32L994 89Z" fill="#00F6D7"/>
<path d="M902.5 89L935 32L870 32L902.5 89Z" fill="#00F6D7"/>
<path d="M811.5 89L844 32L779 32L811.5 89Z" fill="#00F6D7"/>
<path d="M719.5 89L752 32L687 32L719.5 89Z" fill="#00F6D7"/>
<path d="M627.5 89L660 32L595 32L627.5 89Z" fill="#00F6D7"/>
<path d="M536.5 89L569 32L504 32L536.5 89Z" fill="#00F6D7"/>
<path d="M445 89L478 32L412 32L445 89Z" fill="#00F6D7"/>
<path d="M353 89L386 32L320 32L353 89Z" fill="#00F6D7"/>
<path d="M261.55 89L294 32L229 32L261.55 89Z" fill="#00F6D7"/>
<path d="M170 89L203 32L137 32L170 89Z" fill="#00F6D7"/>
<path d="M78.0509 89L111 32L45 32L78.0509 89Z" fill="#00F6D7"/>
<path d="M1315.05 0.999997L1352 -64L1278 -64L1315.05 0.999997Z" fill="#00F6D7"/>
<path d="M1223.55 0.999997L1261 -64L1186 -64L1223.55 0.999997Z" fill="#00F6D7"/>
<path d="M1131.55 0.999997L1169 -64L1094 -64L1131.55 0.999997Z" fill="#00F6D7"/>
<path d="M1040.05 0.999997L1077 -64L1003 -64L1040.05 0.999997Z" fill="#00F6D7"/>
<path d="M948.449 0.999997L986 -64L911 -64L948.449 0.999997Z" fill="#00F6D7"/>
<path d="M856.551 0.999997L894 -64L819 -64L856.551 0.999997Z" fill="#00F6D7"/>
<path d="M764.449 0.999997L802 -64L727 -64L764.449 0.999997Z" fill="#00F6D7"/>
<path d="M674.449 0.999997L712 -64L637 -64L674.449 0.999997Z" fill="#00F6D7"/>
<path d="M582.449 0.999997L620 -64L545 -64L582.449 0.999997Z" fill="#00F6D7"/>
<path d="M490.449 0.999997L528 -64L453 -64L490.449 0.999997Z" fill="#00F6D7"/>
<path d="M399 0.999997L436 -64L362 -64L399 0.999997Z" fill="#00F6D7"/>
<path d="M307.5 0.999997L345 -64L270 -64L307.5 0.999997Z" fill="#00F6D7"/>
<path d="M215.5 0.999997L253 -64L178 -64L215.5 0.999997Z" fill="#00F6D7"/>
<path d="M124 0.999997L161 -64L87 -64L124 0.999997Z" fill="#00F6D7"/>
<path d="M719.916 351L601 549H838.833L719.916 351Z" fill="#FFB914"/>
<path d="M719.915 521.73C682.024 521.73 651.32 481.49 651.32 481.49C651.32 481.49 682.024 441.25 719.915 441.25C757.806 441.25 788.51 481.49 788.51 481.49C788.51 481.49 757.806 521.73 719.915 521.73Z" fill="black"/>
<ellipse rx="29.0357" ry="28.7825" transform="matrix(0.999924 -0.0123609 0.0125794 0.999921 719.905 481.532)" fill="#FFB914"/>
<ellipse rx="15.1224" ry="14.9905" transform="matrix(0.999924 -0.0123609 0.0125794 0.999921 720.337 480.477)" fill="#1169FF"/>
</g>
<defs>
<clipPath id="clip0">
<rect width="1440" height="900" fill="white"/>
</clipPath>
</defs>
</svg>
